<svg width="62" height="62" viewBox="0 0 62 62" fill="none" xmlns="http://www.w3.org/2000/svg">
            <g clip-path="url(#clip0_8_296)">
            <path d="M59.459 7.11475H60.4754C61.0364 7.11475 61.4918 6.66043 61.4918 6.09836V2.03279C61.4918 1.47072 61.0364 1.01639 60.4754 1.01639H56.4098C55.8488 1.01639 55.3934 1.47072 55.3934 2.03279V3.04918H35.0656V1.01639C35.0656 0.454328 34.6102 0 34.0492 0H27.9508C27.3898 0 26.9344 0.454328 26.9344 1.01639V3.04918H6.60654V2.03279C6.60654 1.47072 6.1512 1.01639 5.59015 1.01639H1.52457C0.963523 1.01639 0.508179 1.47072 0.508179 2.03279V6.09836C0.508179 6.66043 0.963523 7.11475 1.52457 7.11475H2.54097V54.8852H1.52457C0.963523 54.8852 0.508179 55.3396 0.508179 55.9016V59.9672C0.508179 60.5293 0.963523 60.9836 1.52457 60.9836H5.59015C6.1512 60.9836 6.60654 60.5293 6.60654 59.9672V58.9508H26.9344V60.9836C26.9344 61.5457 27.3898 62 27.9508 62H34.0492C34.6102 62 35.0656 61.5457 35.0656 60.9836V58.9508H55.3934V59.9672C55.3934 60.5293 55.8488 60.9836 56.4098 60.9836H60.4754C61.0364 60.9836 61.4918 60.5293 61.4918 59.9672V55.9016C61.4918 55.3396 61.0364 54.8852 60.4754 54.8852H59.459V31V7.11475ZM57.4262 3.04918H59.459V5.08197H57.4262V3.04918ZM28.9672 2.03279H33.0328V4.23836V6.09836H28.9672V4.23836V4.06557V2.03279ZM2.54097 3.04918H4.57375V5.08197H2.54097V3.04918ZM4.57375 7.11475H5.59015C6.1512 7.11475 6.60654 6.66043 6.60654 6.09836V5.08197H20.3228C13.1094 7.93295 7.43185 13.577 4.57375 20.6023V7.11475ZM4.57375 58.9508H2.54097V56.918H4.57375V58.9508ZM5.59015 54.8852H4.57375V41.3977C7.43185 48.423 13.1094 54.067 20.3228 56.918H6.60654V55.9016C6.60654 55.3396 6.1512 54.8852 5.59015 54.8852ZM25.1557 24.2755L28.7548 34.1122C27.465 35.0574 26.8826 36.765 27.4599 38.3394C27.7973 39.2633 28.4753 40.0012 29.3687 40.4159C29.8626 40.6456 30.3891 40.7604 30.9177 40.7604C31.3456 40.7604 31.7735 40.6852 32.1861 40.5338C33.111 40.1953 33.8479 39.5174 34.2626 38.625C34.6773 37.7316 34.72 36.7314 34.3815 35.8075C33.8062 34.2331 32.2603 33.3042 30.6646 33.4139L27.0635 23.5722L41.0582 34.6936C39.4056 36.9611 38.9472 39.679 39.8436 42.1437L41.0216 45.3667L28.7233 49.8653L27.5432 46.6382C26.6325 44.1511 24.4676 42.3856 21.6431 41.7717L25.1557 24.2755ZM32.4727 36.5058C32.6242 36.9195 32.6049 37.3687 32.4189 37.7682C32.2329 38.1686 31.9025 38.4725 31.4868 38.625C31.0732 38.7754 30.6229 38.7581 30.2245 38.5711C29.824 38.3851 29.5201 38.0548 29.3687 37.6401C29.0556 36.7843 29.4967 35.834 30.3525 35.5209C30.5396 35.4528 30.7306 35.4193 30.9187 35.4193C31.5925 35.4203 32.2268 35.837 32.4727 36.5058ZM29.4215 51.7761L41.7199 47.2765L44.0098 53.5395C43.9529 53.571 43.897 53.6046 43.8401 53.6351C43.2475 53.9603 42.6468 54.2622 42.036 54.5397C41.9577 54.5752 41.8795 54.6098 41.8002 54.6444C41.7595 54.6616 41.7189 54.6789 41.6792 54.6962C41.0643 54.9645 40.4413 55.2115 39.808 55.4321C39.8019 55.4341 39.7948 55.4371 39.7887 55.4392C39.6912 55.4737 39.5916 55.5042 39.493 55.5378C38.875 55.7441 38.2499 55.926 37.6167 56.0856C37.4815 56.1202 37.3474 56.1537 37.2122 56.1852C36.5373 56.3438 35.8553 56.48 35.1652 56.5857C35.1316 56.5908 35.0981 56.5938 35.0645 56.5989V54.8852C35.0645 54.3232 34.6092 53.8689 34.0481 53.8689H30.1869L29.4215 51.7761ZM33.0328 59.9672H28.9672V57.7616V55.9016H29.4754H33.0328V57.7616V57.9344V59.9672ZM59.459 58.9508H57.4262V57.9344V56.918H58.4426H59.459V58.9508ZM57.4262 41.4414V54.8852H56.4098C55.8488 54.8852 55.3934 55.3396 55.3934 55.9016V56.918H41.6619C41.6802 56.9109 41.6975 56.9018 41.7158 56.8936C42.3246 56.6497 42.9233 56.3773 43.5159 56.0897C43.6714 56.0145 43.8248 55.9382 43.9793 55.86C44.5881 55.551 45.1919 55.2268 45.7834 54.872C45.7844 54.871 45.7855 54.87 45.7865 54.87C46.3983 54.5051 46.9868 54.1158 47.5631 53.7123C47.7471 53.5843 47.9229 53.4491 48.1028 53.317C48.4972 53.0273 48.8834 52.7315 49.2595 52.4246C49.4496 52.269 49.6376 52.1125 49.8236 51.953C50.1946 51.6348 50.5523 51.3065 50.904 50.9711C51.0575 50.8248 51.215 50.6814 51.3655 50.532C51.8503 50.0472 52.3209 49.5512 52.766 49.0359C52.8087 48.9871 52.8463 48.9343 52.888 48.8845C53.2895 48.4129 53.6737 47.929 54.0416 47.4341C54.1727 47.2572 54.2957 47.0763 54.4228 46.8974C54.6952 46.5122 54.9584 46.1219 55.2095 45.7235C55.3355 45.5243 55.4595 45.325 55.5794 45.1238C55.8295 44.704 56.0663 44.2782 56.2929 43.8462C56.3844 43.6734 56.481 43.5027 56.5684 43.3278C56.8702 42.7221 57.1538 42.1071 57.411 41.48C57.414 41.4668 57.4211 41.4546 57.4262 41.4414ZM45.7804 52.4622L41.7534 41.4465C40.9952 39.3629 41.54 37.0953 43.2475 35.2221C43.4376 35.0137 43.5321 34.7363 43.5087 34.4557C43.4864 34.1752 43.3481 33.917 43.1276 33.7412L25.7523 19.9335C25.5887 19.3176 25.2594 17.608 26.2331 16.369C27.342 14.9593 29.9175 14.444 33.6782 14.8668C37.452 15.2998 40.0713 14.7225 41.4709 13.1653C42.5706 11.9436 42.596 10.413 42.4385 9.70046L40.4545 10.1416C40.4565 10.1507 40.6232 11.0695 39.9605 11.8074C39.0508 12.8167 36.9001 13.1836 33.9079 12.8482C29.3422 12.3268 26.225 13.0932 24.6353 15.1138C23.0294 17.1557 23.5773 19.7363 23.8222 20.5911L19.4426 42.408C19.3867 42.6885 19.4507 42.9792 19.6194 43.2099C19.7892 43.4407 20.0463 43.5891 20.3309 43.6185C22.9369 43.896 24.8701 45.2519 25.6344 47.3395L28.0219 53.8689H27.9508C27.3898 53.8689 26.9344 54.3232 26.9344 54.8852V56.605C14.1085 54.6769 4.57375 43.8594 4.57375 31C4.57375 18.1406 14.1085 7.32311 26.9344 5.39502V7.11475C26.9344 7.67682 27.3898 8.13115 27.9508 8.13115H34.0492C34.6102 8.13115 35.0656 7.67682 35.0656 7.11475V5.39502C47.8914 7.32311 57.4262 18.1406 57.4262 31C57.4262 39.7095 53.0923 47.6384 45.7804 52.4622ZM41.6772 5.08197H55.3934V6.09836C55.3934 6.66043 55.8488 7.11475 56.4098 7.11475H57.4262V20.6023C54.5681 13.577 48.8905 7.93295 41.6772 5.08197Z" fill="black"/>
            </g>
            </svg>