<svg width="64" height="64" viewBox="0 0 64 64" fill="none" xmlns="http://www.w3.org/2000/svg">
              <g clip-path="url(#clip0_8_310)">
              <path d="M40.7635 56.9325H45.3616C47.1211 56.9325 48.6798 55.8779 49.3358 54.2457L51.3988 49.105" stroke="black" stroke-width="2" stroke-miterlimit="10" stroke-linecap="round" stroke-linejoin="round"/>
              <path d="M40.7635 60.7912H45.3616C48.7056 60.7912 51.6702 58.7873 52.9164 55.6838L55.6007 48.9971" stroke="black" stroke-width="2" stroke-miterlimit="10" stroke-linecap="round" stroke-linejoin="round"/>
              <path d="M49.4331 48.9789L54.0187 49.2752C55.5209 49.3724 56.9067 48.468 57.4216 47.0526L58.3541 44.4902" stroke="black" stroke-width="2" stroke-miterlimit="10" stroke-linecap="round" stroke-linejoin="round"/>
              <path d="M55.3651 32.6797L59.0681 35.4017C60.2816 36.2933 60.7606 37.8772 60.2471 39.2912L59.8844 40.2876" stroke="black" stroke-width="2" stroke-miterlimit="10" stroke-linecap="round" stroke-linejoin="round"/>
              <path d="M53.4079 29.0959C55.0116 29.6795 55.8385 31.4528 55.2548 33.0564L49.5902 48.6199C49.0065 50.2236 47.2333 51.0505 45.6296 50.4668C44.026 49.8832 43.1991 48.1099 43.7827 46.5063L49.4474 30.9428C50.031 29.339 51.8043 28.5122 53.4079 29.0959Z" stroke="black" stroke-width="2" stroke-miterlimit="10" stroke-linecap="round" stroke-linejoin="round"/>
              <path d="M37.0313 63.0624C39.351 63.0624 41.2314 61.1819 41.2314 58.8622C41.2314 56.5426 39.351 54.6621 37.0313 54.6621C34.7116 54.6621 32.8312 56.5426 32.8312 58.8622C32.8312 61.1819 34.7116 63.0624 37.0313 63.0624Z" stroke="black" stroke-width="2" stroke-miterlimit="10" stroke-linecap="round" stroke-linejoin="round"/>
              <path d="M14.4837 50.3684H17.6937L26.0872 57.5497C27.2112 58.5116 28.9458 57.7132 28.9458 56.2341V50.3685H34.4985C37.7774 50.3685 40.4343 47.7104 40.4343 44.4327V28.3302C40.4343 25.0513 37.7774 22.3931 34.4985 22.3931H7.94239C4.66474 22.3931 2.00659 25.0512 2.00659 28.3302V44.4325C2.00659 47.7101 4.66474 50.3683 7.94239 50.3683H10.013" stroke="black" stroke-width="2" stroke-miterlimit="10" stroke-linecap="round" stroke-linejoin="round"/>
              <path d="M8.18481 32.9731H34.2565" stroke="black" stroke-width="2" stroke-miterlimit="10" stroke-linecap="round" stroke-linejoin="round"/>
              <path d="M8.18481 37.5488H34.2565" stroke="black" stroke-width="2" stroke-miterlimit="10" stroke-linecap="round" stroke-linejoin="round"/>
              <path d="M8.18481 42.1245H29.9916" stroke="black" stroke-width="2" stroke-miterlimit="10" stroke-linecap="round" stroke-linejoin="round"/>
              <path d="M6.26257 22.6345C7.45308 17.5929 10.0205 12.965 13.7759 9.20957C19.1114 3.8754 26.2046 0.9375 33.7485 0.9375C41.2925 0.9375 48.3857 3.8754 53.7212 9.20957C59.0554 14.5451 61.9933 21.6382 61.9933 29.1822C61.9933 32.3463 61.4631 35.4758 60.4375 38.4367" stroke="black" stroke-width="2" stroke-miterlimit="10" stroke-linecap="round" stroke-linejoin="round"/>
              <path d="M10.2965 22.3932C13.2447 12.2242 22.6434 4.76953 33.7487 4.76953C47.2094 4.76953 58.1614 15.7215 58.1614 29.1822C58.1614 30.9207 57.9761 32.6476 57.6134 34.3325" stroke="black" stroke-width="2" stroke-miterlimit="10" stroke-linecap="round" stroke-linejoin="round"/>
              </g>
              </svg>