<svg width="21" height="21" viewBox="0 0 21 21" fill="none" xmlns="http://www.w3.org/2000/svg">
                <g clip-path="url(#clip0_22_29)">
                <path d="M13.9786 0H6.99136C5.75827 0.00139826 4.75904 1.00063 4.75781 2.23372V18.7664C4.75904 19.9995 5.75827 20.9987 6.99136 20.9999H13.9786C15.2117 20.9987 16.211 19.9995 16.2124 18.7664V2.23372C16.211 1.00063 15.2117 0.00139826 13.9786 0ZM15.2577 18.7664C15.257 19.4725 14.6848 20.0448 13.9786 20.0455H6.99136C6.28524 20.0448 5.713 19.4725 5.7123 18.7664V2.23372C5.713 1.52742 6.28524 0.955186 6.99136 0.954487H13.9786C14.6848 0.955186 15.257 1.52742 15.2577 2.23372V18.7664Z" fill="black"/>
                <path d="M11.917 1.90918H9.05338C8.78981 1.90918 8.57605 2.12276 8.57605 2.38634C8.57605 2.64991 8.78981 2.86367 9.05338 2.86367H11.917C12.1806 2.86367 12.3942 2.64991 12.3942 2.38634C12.3942 2.12276 12.1806 1.90918 11.917 1.90918Z" fill="black"/>
                <path d="M11.4397 18.1363C11.4397 18.6636 11.0123 19.091 10.4852 19.091C9.95786 19.091 9.53052 18.6636 9.53052 18.1363C9.53052 17.6092 9.95786 17.1818 10.4852 17.1818C11.0123 17.1818 11.4397 17.6092 11.4397 18.1363Z" fill="black"/>
                </g>
              </svg>