<svg width="48" height="48" viewBox="0 0 48 48" fill="none" xmlns="http://www.w3.org/2000/svg">
            <g clip-path="url(#clip0_17_765)">
            <path d="M45.5384 8H2.46159C1.10766 8 0 9.10766 0 10.4615V37.5385C0 38.8922 1.10766 40.0001 2.46159 40.0001H45.5385C46.8923 40.0001 48.0001 38.8924 48.0001 37.5385V10.4615C48 9.10766 46.8923 8 45.5384 8ZM44.6147 9.84603L25.416 24.2462C25.0708 24.5089 24.5409 24.6732 23.9999 24.6708C23.459 24.6732 22.9292 24.5089 22.5839 24.2462L3.38522 9.84603H44.6147ZM34.3594 25.1964L44.8209 38.1195C44.8314 38.1325 44.8443 38.1423 44.8554 38.154H3.14456C3.15562 38.1418 3.16856 38.1325 3.17906 38.1195L13.6406 25.1964C13.9612 24.8001 13.9004 24.2191 13.5034 23.8978C13.1071 23.5773 12.5261 23.6381 12.2055 24.0344L1.84612 36.8314V10.9999L21.4768 25.723C22.2147 26.2725 23.1125 26.5144 23.9998 26.5168C24.8859 26.515 25.7844 26.2731 26.5228 25.723L46.1535 10.9999V36.8312L35.7944 24.0344C35.4738 23.6382 34.8923 23.5772 34.4965 23.8978C34.0996 24.2184 34.0387 24.8001 34.3594 25.1964Z" fill="black"/>
            </g>
            </svg>