<svg width="22" height="22" viewBox="0 0 22 22" fill="none" xmlns="http://www.w3.org/2000/svg">
                      <path d="M20.625 2.0625H1.375C0.9955 2.0625 0.6875 2.3705 0.6875 2.75V19.5938C0.6875 19.877 0.861437 20.131 1.12509 20.2342C1.20656 20.2658 1.29112 20.2812 1.375 20.2812C1.56372 20.2812 1.74831 20.2036 1.881 20.0592L5.47181 16.1562H20.625C21.0045 16.1562 21.3125 15.8483 21.3125 15.4688V2.75C21.3125 2.3705 21.0045 2.0625 20.625 2.0625ZM19.9375 14.7812H5.17C4.9775 14.7812 4.79428 14.8617 4.664 15.0033L2.0625 17.831V3.4375H19.9375V14.7812Z" fill="black"/>
                      <path d="M8.42188 7.90625H13.5781C13.9576 7.90625 14.2656 7.59825 14.2656 7.21875C14.2656 6.83925 13.9576 6.53125 13.5781 6.53125H8.42188C8.04237 6.53125 7.73438 6.83925 7.73438 7.21875C7.73438 7.59825 8.04237 7.90625 8.42188 7.90625Z" fill="black"/>
                      <path d="M8.42188 12.0312H13.5781C13.9576 12.0312 14.2656 11.7233 14.2656 11.3438C14.2656 10.9642 13.9576 10.6562 13.5781 10.6562H8.42188C8.04237 10.6562 7.73438 10.9642 7.73438 11.3438C7.73438 11.7233 8.04237 12.0312 8.42188 12.0312Z" fill="black"/>
                    </svg>