<svg width="55" height="55" viewBox="0 0 55 55" fill="none" xmlns="http://www.w3.org/2000/svg">
              <mask id="mask0_17_805" style="mask-type:luminance" maskUnits="userSpaceOnUse" x="0" y="0" width="55" height="55">
              <path d="M0 -7.62939e-06H55V55H0V-7.62939e-06Z" fill="white"/>
              </mask>
              <g mask="url(#mask0_17_805)">
              <path d="M11.3867 53.9258H43.6133" stroke="black" stroke-width="2" stroke-miterlimit="10" stroke-linecap="round" stroke-linejoin="round"/>
              <path d="M27.5 29.0039C22.7616 29.0039 18.9062 25.1485 18.9062 20.4102C18.9062 15.6718 22.7616 11.8164 27.5 11.8164C32.2384 11.8164 36.0938 15.6718 36.0938 20.4102C36.0938 25.1485 32.2384 29.0039 27.5 29.0039Z" stroke="black" stroke-width="2" stroke-miterlimit="10" stroke-linecap="round" stroke-linejoin="round"/>
              <path d="M38.2422 40.3906C38.2422 40.9839 37.7612 41.4648 37.168 41.4648C36.5748 41.4648 36.0938 40.9839 36.0938 40.3906C36.0938 39.7973 36.5748 39.3164 37.168 39.3164C37.7612 39.3164 38.2422 39.7973 38.2422 40.3906Z" fill="black"/>
              <path d="M34.3065 44.2846L27.5001 53.9258L12.0216 32.001C9.59928 28.7709 8.16412 24.7586 8.16412 20.4101C8.16412 9.73134 16.8213 1.07421 27.5001 1.07421C38.1789 1.07421 46.836 9.73134 46.836 20.4101C46.836 24.7586 45.4007 28.7709 42.9785 32.001L39.8795 36.3907" stroke="black" stroke-width="2" stroke-miterlimit="10" stroke-linecap="round" stroke-linejoin="round"/>
              </g>
              </svg>