<svg width="62" height="62" viewBox="0 0 62 62" fill="none" xmlns="http://www.w3.org/2000/svg">
                <path d="M30.9631 9.95657C20.1229 9.95657 11.3038 18.7757 11.3038 29.6158C11.3038 33.0838 12.2194 36.4934 13.9514 39.476C15.6314 42.369 18.0388 44.8034 20.913 46.516C21.7555 47.018 22.2194 47.8343 22.2194 48.8146V53.3424C22.2194 54.9714 23.2943 56.3539 24.7721 56.8182V56.9021C24.7721 59.5796 26.9502 61.7579 29.6277 61.7579H32.2984C34.9759 61.7579 37.1543 59.5797 37.1543 56.9021V56.8182C38.6318 56.3538 39.7067 54.9712 39.7067 53.3424V48.8146C39.7067 47.8342 40.1707 47.0179 41.0133 46.516C43.8876 44.8034 46.2949 42.369 47.975 39.476C49.7071 36.4934 50.6225 33.0838 50.6225 29.6158C50.6227 18.7756 41.8034 9.95657 30.9631 9.95657ZM32.2985 59.5781H29.6278C28.1801 59.5781 26.998 58.4222 26.954 56.9848H34.9725C34.9284 58.4222 33.7463 59.5781 32.2985 59.5781ZM36.0644 54.8051H25.862C25.0554 54.8051 24.3992 54.1489 24.3992 53.3423V52.567H37.527V53.3423C37.527 54.1489 36.8709 54.8051 36.0644 54.8051ZM39.8978 44.6434C38.3912 45.5409 37.5271 47.0613 37.5271 48.8145V50.3872H24.3992V48.8145C24.3992 47.0613 23.5352 45.5409 22.0288 44.6434C16.7579 41.5027 13.4836 35.7446 13.4836 29.6157C13.4836 19.9774 21.3249 12.1361 30.9632 12.1361C40.6017 12.1361 48.4431 19.9774 48.4431 29.6157C48.443 35.7446 45.1686 41.5027 39.8978 44.6434ZM5.65232 14.8555C5.95312 14.3344 6.61938 14.1556 7.14105 14.4567L11.3116 16.8645C11.8329 17.1654 12.0114 17.8319 11.7105 18.3532C11.5087 18.7028 11.1423 18.8983 10.7656 18.8983C10.5808 18.8983 10.3935 18.8511 10.2218 18.7521L6.0512 16.3443C5.5299 16.0433 5.35128 15.3767 5.65232 14.8555ZM7.64238 30.5585H2.82648C2.22452 30.5585 1.73663 30.0706 1.73663 29.4686C1.73663 28.8667 2.22452 28.3788 2.82648 28.3788H7.64238C8.24433 28.3788 8.73222 28.8667 8.73222 29.4686C8.73222 30.0706 8.24433 30.5585 7.64238 30.5585ZM11.7105 40.5842C12.0114 41.1055 11.8329 41.772 11.3116 42.0729L7.14105 44.4809C6.96946 44.5799 6.782 44.627 6.59722 44.627C6.22049 44.627 5.85418 44.4317 5.65232 44.082C5.3514 43.5607 5.5299 42.8942 6.0512 42.5933L10.2218 40.1853C10.7433 39.8844 11.4097 40.063 11.7105 40.5842ZM43.0725 26.5054H41.9022C41.6626 25.6595 41.3265 24.8486 40.8971 24.0808L41.7251 23.253C42.1507 22.8274 42.1508 22.1374 41.7252 21.7117L38.8676 18.8539C38.6632 18.6495 38.386 18.5347 38.097 18.5347C37.8079 18.5347 37.5307 18.6495 37.3265 18.8539L36.4983 19.682C35.7299 19.2523 34.9192 18.9163 34.0738 18.6768V17.5066C34.0738 16.9047 33.5859 16.4168 32.9839 16.4168H28.9426C28.3407 16.4168 27.8528 16.9047 27.8528 17.5066V18.6768C27.007 18.9163 26.196 19.2523 25.428 19.6819L24.6002 18.8541C24.1745 18.4284 23.4846 18.4284 23.0588 18.8541L20.201 21.7119C19.7754 22.1375 19.7754 22.8275 20.201 23.2531L21.0289 24.0809C20.5992 24.8493 20.2631 25.6601 20.0237 26.5056H18.854C18.252 26.5056 17.7641 26.9936 17.7641 27.5954V31.637C17.7641 32.2389 18.252 32.7268 18.854 32.7268H20.0238C20.2634 33.5725 20.5994 34.3834 21.0289 35.1515L20.201 35.9793C19.7754 36.405 19.7755 37.095 20.201 37.5207L23.0588 40.3785C23.2632 40.5829 23.5405 40.6977 23.8295 40.6977C24.1184 40.6977 24.3958 40.5829 24.6001 40.3783L25.4279 39.5505C26.1962 39.9802 27.0072 40.3162 27.8527 40.5556V41.7256C27.8527 42.3276 28.3406 42.8155 28.9425 42.8155H32.9838C33.5857 42.8155 34.0736 42.3276 34.0736 41.7256V40.5555C34.9192 40.316 35.7302 39.9799 36.4983 39.5504L37.3263 40.3783C37.7521 40.8039 38.4418 40.804 38.8676 40.3782L41.7252 37.5205C42.1507 37.095 42.1508 36.405 41.7252 35.9793L40.8973 35.1513C41.3268 34.383 41.6628 33.5722 41.9023 32.7268H43.0725C43.6744 32.7268 44.1623 32.2389 44.1623 31.637V27.5954C44.1623 26.9934 43.6744 26.5054 43.0725 26.5054ZM41.9826 30.5469H41.0446C40.5249 30.5469 40.0775 30.9139 39.9759 31.4236C39.7411 32.6017 39.2826 33.7075 38.6136 34.7103C38.3251 35.1425 38.382 35.7183 38.7494 36.0857L39.4133 36.7496L38.0968 38.0661L37.4329 37.4022C37.0654 37.0347 36.4895 36.9777 36.0574 37.2665C35.0552 37.9353 33.9494 38.3937 32.7708 38.6287C32.2611 38.7303 31.8941 39.1777 31.8941 39.6974V40.6354H30.0325V39.6974C30.0325 39.1776 29.6653 38.7301 29.1555 38.6287C27.9774 38.394 26.8717 37.9356 25.8689 37.2665C25.4369 36.9778 24.8608 37.0347 24.4933 37.4023L23.8296 38.0662L22.5131 36.7496L23.1769 36.0857C23.5443 35.7182 23.6012 35.1424 23.3126 34.7102C22.6438 33.7081 22.1854 32.6024 21.9505 31.4236C21.8489 30.9139 21.4014 30.5469 20.8817 30.5469H19.9439V28.6851H20.8817C21.4015 28.6851 21.849 28.3179 21.9505 27.8081C22.1851 26.6301 22.6435 25.5244 23.3126 24.5217C23.6012 24.0895 23.5443 23.5136 23.1769 23.1461L22.5131 22.4823L23.8296 21.1657L24.4933 21.8296C24.8609 22.1971 25.4366 22.2539 25.8689 21.9654C26.8709 21.2966 27.9767 20.8383 29.1559 20.6031C29.6656 20.5014 30.0325 20.0541 30.0325 19.5344V18.5964H31.8941V19.5344C31.8941 20.0541 32.2611 20.5015 32.7708 20.6031C33.9489 20.8379 35.0547 21.2964 36.0574 21.9654C36.4899 22.254 37.0655 22.1971 37.4329 21.8296L38.0968 21.1656L39.4133 22.4821L38.7493 23.1461C38.3817 23.5137 38.3249 24.0897 38.6136 24.522C39.2821 25.5233 39.7406 26.629 39.9759 27.8085C40.0776 28.318 40.525 28.6851 41.0446 28.6851H41.9826V30.5469ZM30.9629 22.2293C26.8899 22.2293 23.5764 25.543 23.5764 29.616C23.5764 33.689 26.8899 37.0026 30.9629 37.0026C35.036 37.0026 38.3496 33.689 38.3496 29.616C38.3496 25.543 35.036 22.2293 30.9629 22.2293ZM30.9629 34.8229C28.0918 34.8229 25.7561 32.4872 25.7561 29.616C25.7561 26.7449 28.0918 24.409 30.9629 24.409C33.834 24.409 36.1699 26.7449 36.1699 29.616C36.1699 32.4872 33.834 34.8229 30.9629 34.8229ZM50.216 18.3532C49.9151 17.8319 50.0936 17.1654 50.6149 16.8645L54.7853 14.4567C55.3067 14.1556 55.9732 14.3345 56.274 14.8555C56.5749 15.3768 56.3964 16.0433 55.8751 16.3443L51.7048 18.7521C51.5332 18.8511 51.3457 18.8984 51.1609 18.8984C50.7841 18.8983 50.4179 18.7028 50.216 18.3532ZM60.2633 29.4885C60.2633 30.0905 59.7754 30.5784 59.1735 30.5784H54.3576C53.7556 30.5784 53.2677 30.0905 53.2677 29.4885C53.2677 28.8866 53.7556 28.3987 54.3576 28.3987H59.1735C59.7754 28.3987 60.2633 28.8866 60.2633 29.4885ZM56.274 44.082C56.0721 44.4317 55.7058 44.627 55.3291 44.627C55.1443 44.627 54.9569 44.5799 54.7853 44.4809L50.6149 42.0729C50.0936 41.772 49.9151 41.1055 50.216 40.5842C50.5168 40.0629 51.1833 39.8843 51.7048 40.1853L55.8751 42.5933C56.3964 42.8943 56.5749 43.5608 56.274 44.082ZM29.8733 6.14781V1.33203C29.8733 0.730074 30.3611 0.242188 30.9631 0.242188C31.5651 0.242188 32.0529 0.730074 32.0529 1.33203V6.14781C32.0529 6.74977 31.5651 7.23765 30.9631 7.23765C30.3611 7.23765 29.8733 6.74964 29.8733 6.14781ZM15.951 5.6466C15.6501 5.12529 15.8286 4.45879 16.3499 4.15787C16.8709 3.85684 17.5376 4.03557 17.8386 4.55664L20.2468 8.72711C20.5477 9.24841 20.3692 9.91491 19.8479 10.2158C19.6763 10.3149 19.4889 10.3621 19.3041 10.3621C18.9275 10.3621 18.561 10.1667 18.3592 9.81707L15.951 5.6466ZM41.68 8.72735L44.0877 4.55688C44.3886 4.03569 45.0547 3.85696 45.5764 4.15787C46.0978 4.45879 46.2762 5.12529 45.9753 5.6466L43.5676 9.81707C43.3658 10.1667 42.9995 10.3622 42.6227 10.3622C42.4379 10.3622 42.2506 10.3151 42.0789 10.2161C41.5577 9.91504 41.3791 9.24854 41.68 8.72735Z" fill="black"/>
                </svg>