<svg width="56" height="56" viewBox="0 0 56 56" fill="none" xmlns="http://www.w3.org/2000/svg">
              <g clip-path="url(#clip0_8_326)">
              <path d="M52.5639 37.5182C59.1857 28.2989 55.7622 14.5588 46.0737 9.34354V4.06316C46.0199 2.61351 43.9395 2.6146 43.8862 4.06316V8.27167C42.835 7.83538 41.7381 7.48822 40.6047 7.23906V4.06316C40.5509 2.61351 38.4705 2.6146 38.4173 4.06316V6.88579C34.9199 6.51752 31.3219 7.1228 28.1362 8.60286V1.09375C28.1362 0.489779 27.6465 0 27.0424 0H1.1062C0.502121 0 0.0124512 0.489779 0.0124512 1.09375V27.0301C0.0124512 27.634 0.502121 28.1238 1.1062 28.1238H16.838C16.936 29.2406 17.1287 30.3377 17.4098 31.4052H10.9029C9.45323 31.459 9.45432 33.5394 10.9029 33.5926H18.126C19.5716 37.2652 22.1083 40.4603 25.4578 42.706L18.7296 54.3595C18.5342 54.6979 18.5342 55.1148 18.7296 55.4532C18.925 55.7916 19.286 56.0001 19.6768 56.0001H49.136C49.5268 56.0001 49.8878 55.7916 50.0831 55.4532C50.2786 55.1148 50.2786 54.6979 50.0831 54.3595L44.3106 44.3611C47.6482 42.8906 50.4882 40.5402 52.5639 37.5182ZM2.19994 2.18749H25.9487V25.9363H2.19994V2.18749ZM21.5714 53.8125L34.4065 31.5814L47.2417 53.8125H21.5714ZM43.2097 42.4538L35.3538 28.847C34.9595 28.1258 33.8536 28.1259 33.4594 28.847L26.5547 40.8062C23.8833 38.9825 21.8041 36.4752 20.5001 33.5926H22.1681C23.6178 33.5388 23.6167 31.4584 22.1681 31.4052H19.6812C19.3634 30.3432 19.1464 29.245 19.0355 28.1238H27.0425C27.6466 28.1238 28.1363 27.634 28.1363 27.0301V11.0466C31.2568 9.36509 34.898 8.66739 38.4174 9.0876V11.9381C38.4712 13.3878 40.5516 13.3867 40.6049 11.9381V9.48562C41.7471 9.77043 42.8451 10.1676 43.8863 10.6657V19.8131C43.9401 21.2627 46.0205 21.2617 46.0738 19.8131V11.914C57.471 19.3369 55.9208 37.132 43.2097 42.4538Z" fill="black"/>
              <path d="M14.0744 36.874H5.98063C4.53097 36.9278 4.53207 39.0083 5.98063 39.0615H14.0744C15.524 39.0077 15.5229 36.9273 14.0744 36.874Z" fill="black"/>
              <path d="M5.98143 33.5928C7.43109 33.539 7.43 31.4585 5.98143 31.4053H5.98056C4.5309 31.4592 4.53287 33.5396 5.98143 33.5928Z" fill="black"/>
              </g>
            </svg>