<svg width="47" height="50" viewBox="0 0 47 50" fill="none" xmlns="http://www.w3.org/2000/svg">
              <mask id="mask0_17_753" style="mask-type:luminance" maskUnits="userSpaceOnUse" x="-4" y="0" width="51" height="50">
              <path d="M-3.3158 0.10495H46.4211V49.8418H-3.3158V0.10495Z" fill="white"/>
              </mask>
              <g mask="url(#mask0_17_753)">
              <path d="M36.5038 43.0766C36.5038 46.2763 33.9101 48.8701 30.7102 48.8701H24.4349C22.2404 48.8701 20.2344 47.6306 19.2533 45.6673L17.9574 43.0766L15.0606 48.8701L12.1637 43.0766L9.26706 48.8701L6.37028 43.0766L3.4734 48.8701L0.576715 43.0766L-2.32007 48.8701" stroke="black" stroke-width="2" stroke-miterlimit="10" stroke-linecap="round" stroke-linejoin="round"/>
              <path d="M22.5484 25.9446C22.5484 26.481 22.1134 26.916 21.577 26.916C21.0405 26.916 20.6055 26.481 20.6055 25.9446C20.6055 25.4082 21.0405 24.9732 21.577 24.9732C22.1134 24.9732 22.5484 25.4082 22.5484 25.9446Z" fill="black"/>
              <path d="M18.5355 22.8072C17.3528 21.4293 16.2909 20.0241 15.4209 18.6625C14.7041 17.5415 14.9208 16.0562 15.8621 15.1147L19.1319 11.845C19.8352 11.1417 19.8352 10.0013 19.1319 9.29796L11.4372 1.60332C10.7338 0.900013 9.59338 0.900013 8.8891 1.60332L6.94236 3.55103C3.78242 6.71107 2.92747 11.5322 4.91122 15.5374C8.44137 22.6628 16.8694 34.7502 30.8627 41.6114C34.8785 43.5804 39.792 42.745 42.955 39.583L44.9465 37.5916C45.6497 36.8873 45.6497 35.7469 44.9465 35.0436L37.1838 27.3499C36.4795 26.6456 35.3391 26.6456 34.6357 27.3499L31.3659 30.6188C30.4255 31.5601 28.9402 31.7767 27.8183 31.0598C26.8289 30.4278 25.8162 29.6942 24.8075 28.8862" stroke="black" stroke-width="2" stroke-miterlimit="10" stroke-linecap="round" stroke-linejoin="round"/>
              </g>
            </svg>